<svg width="80" height="64" viewBox="0 0 80 64" fill="none" xmlns="http://www.w3.org/2000/svg">
<path d="M67.9996 55.3L71.9996 45H74.7996L78.7996 55.3H79.5996V59H78.1996L77.9996 56.6H68.6996L68.4996 59H67.0996V55.3H67.9996ZM69.5996 55.3H76.9996L73.6996 46.2H72.9996L69.5996 55.3Z" fill="#D8E5C2"/>
<path d="M62.2 53.3L57.5 45H59.4L63.1 51.6L66.2 45H67.9L63.5 53.8C62.9 55.1 62.3 55.9 61.7 56.1C61.2 56.4 60.5 56.5 59.6 56.5H59.2V55.2H59.8C60.4 55.2 60.8 55.1 61 54.9C61.3 54.7 61.5 54.3 61.9 53.7L62.2 53.3Z" fill="#D8E5C2"/>
<path d="M46.8999 56.5996V45.0996H52.2999C53.6999 45.0996 54.6999 45.3996 55.2999 45.8996C55.9999 46.4996 56.2999 47.0996 56.2999 47.8996C56.2999 49.1996 55.4999 50.0996 53.8999 50.4996C54.8999 50.6996 55.5999 51.0996 56.0999 51.5996C56.5999 52.0996 56.7999 52.6996 56.7999 53.3996C56.7999 54.2996 56.3999 55.0996 55.6999 55.6996C54.9999 56.2996 53.8999 56.5996 52.2999 56.5996H46.8999ZM48.6999 55.2996H52.1999C53.0999 55.2996 53.7999 55.0996 54.2999 54.7996C54.7999 54.3996 54.9999 53.9996 54.9999 53.3996C54.9999 52.9996 54.8999 52.5996 54.6999 52.2996C54.4999 51.8996 54.1999 51.6996 53.7999 51.4996C53.3999 51.2996 52.7999 51.1996 51.9999 51.1996H48.6999V55.2996ZM48.6999 49.9996H51.4999C52.6999 49.9996 53.5999 49.7996 53.9999 49.3996C54.3999 48.9996 54.5999 48.4996 54.5999 47.9996C54.5999 47.4996 54.3999 46.9996 53.8999 46.6996C53.4999 46.3996 52.7999 46.1996 51.8999 46.1996H48.5999V49.9996H48.6999Z" fill="#D8E5C2"/>
<path d="M44.0999 56.5996H42.2999V51.0996H35.6999V56.5996H33.8999V45.0996H35.6999V49.7996H42.2999V45.0996H44.0999V56.5996Z" fill="#D8E5C2"/>
<path d="M22.5998 55.5996V56.5996H20.7998V45.0996H22.5998V52.4996C22.5998 52.9996 22.5998 53.4996 22.4998 53.9996C22.9998 53.2996 23.5998 52.5996 24.1998 51.7996L29.1998 46.1996V45.0996H30.9998V56.5996H29.1998V49.8996C29.1998 49.4996 29.1998 48.7996 29.2998 47.7996C28.8998 48.3996 28.2998 49.0996 27.5998 49.9996L22.5998 55.5996Z" fill="#D8E5C2"/>
<path d="M11.3997 56.5996H9.69971V45.0996H14.4997C15.9997 45.0996 17.0997 45.3996 17.8997 46.0996C18.5997 46.7996 18.9997 47.5996 18.9997 48.4996C18.9997 49.4996 18.5997 50.2996 17.7997 50.9996C16.9997 51.6996 15.9997 51.9996 14.6997 51.9996H11.3997V56.5996ZM11.3997 50.6996H14.4997C15.2997 50.6996 15.9997 50.4996 16.4997 50.0996C16.9997 49.6996 17.1997 49.1996 17.1997 48.4996C17.1997 47.8996 16.9997 47.3996 16.4997 46.9996C16.0997 46.4996 15.3997 46.2996 14.5997 46.2996H11.2997V50.6996H11.3997Z" fill="#D8E5C2"/>
<path d="M0.399902 56.5996V45.0996H7.69989V46.2996H2.09985V56.5996H0.399902Z" fill="#D8E5C2"/>
<path d="M7.69971 60.5998H9.39972V60.9998H8.19971V63.0998H7.69971V60.5998ZM11.5997 63.0998V60.4998H12.3997C12.6997 60.4998 12.8997 60.4998 12.9997 60.4998C13.0997 60.4998 13.2997 60.5998 13.3997 60.6998C13.4997 60.7998 13.4997 60.9998 13.4997 61.1998C13.4997 61.3998 13.4997 61.4998 13.3997 61.5998C13.2997 61.6998 13.2997 61.7998 13.1997 61.8998C13.0997 61.9998 12.9997 61.9998 12.8997 61.9998C12.7997 61.9998 12.5997 61.9998 12.3997 61.9998H12.0997V62.9998H11.5997V63.0998ZM12.0997 60.9998V61.6998H12.3997C12.5997 61.6998 12.6997 61.6998 12.7997 61.6998C12.8997 61.6998 12.8997 61.5998 12.9997 61.5998C12.9997 61.4998 13.0997 61.4998 13.0997 61.3998C13.0997 61.2998 13.0997 61.1998 12.9997 61.1998C12.8997 61.0998 12.8997 61.0998 12.7997 61.0998C12.6997 61.0998 12.5997 61.0998 12.3997 61.0998H12.0997V60.9998ZM15.4997 60.5998H16.0997L16.6997 61.8998L17.1997 60.5998H17.6997L16.7997 62.4998C16.6997 62.6998 16.5997 62.8998 16.4997 62.9998C16.3997 63.0998 16.2997 63.1998 16.0997 63.1998C15.8997 63.1998 15.7997 63.1998 15.6997 63.1998V62.7998C15.7997 62.7998 15.7997 62.7998 15.8997 62.7998C15.9997 62.7998 16.0997 62.7998 16.1997 62.6998C16.2997 62.6998 16.2997 62.5998 16.2997 62.3998L15.4997 60.5998ZM19.8997 60.5998H21.8997V63.1998H21.3997V60.9998H20.3997V63.0998H19.8997V60.5998ZM24.2997 60.5998H26.2997V63.1998H25.7997V60.9998H24.7997V63.0998H24.2997V60.5998ZM31.0997 63.0998H30.4997L30.2997 62.4998H29.2997L29.0997 63.0998H28.5997L29.5997 60.4998H30.0997L31.0997 63.0998ZM30.0997 62.0998L29.6997 61.1998L29.3997 62.0998H30.0997ZM37.5997 60.5998H38.0997V61.6998C38.1997 61.6998 38.2997 61.6998 38.2997 61.5998C38.2997 61.5998 38.3997 61.3998 38.4997 61.1998C38.5997 60.8998 38.6997 60.7998 38.7997 60.6998C38.8997 60.5998 39.0997 60.5998 39.2997 60.5998C39.2997 60.5998 39.2997 60.5998 39.3997 60.5998V60.9998H39.2997C39.1997 60.9998 39.0997 60.9998 39.0997 60.9998L38.9997 61.0998C38.9997 61.1998 38.8997 61.2998 38.8997 61.3998C38.8997 61.4998 38.7997 61.5998 38.7997 61.5998C38.7997 61.6998 38.6997 61.6998 38.5997 61.7998C38.6997 61.7998 38.7997 61.8998 38.8997 61.9998C38.9997 62.0998 39.0997 62.1998 39.0997 62.3998L39.3997 63.0998H38.7997L38.4997 62.3998C38.4997 62.3998 38.4997 62.3998 38.4997 62.2998C38.4997 62.2998 38.4997 62.2998 38.3997 62.1998C38.2997 62.0998 38.2997 61.9998 38.1997 61.9998C38.1997 61.9998 38.0997 61.9998 37.9997 61.9998V63.0998H37.4997V60.5998H37.5997ZM41.5997 61.8998C41.5997 61.5998 41.5997 61.3998 41.6997 61.1998C41.7997 61.0998 41.7997 60.9998 41.8997 60.8998C41.9997 60.7998 42.0997 60.6998 42.1997 60.6998C42.3997 60.5998 42.4997 60.5998 42.6997 60.5998C43.0997 60.5998 43.3997 60.6998 43.5997 60.8998C43.7997 61.0998 43.8997 61.4998 43.8997 61.8998C43.8997 62.2998 43.7997 62.5998 43.5997 62.8998C43.3997 63.0998 43.0997 63.1998 42.6997 63.1998C42.2997 63.1998 41.9997 63.0998 41.7997 62.8998C41.6997 62.5998 41.5997 62.2998 41.5997 61.8998ZM42.0997 61.7998C42.0997 62.0998 42.1997 62.2998 42.2997 62.4998C42.3997 62.5998 42.5997 62.6998 42.7997 62.6998C42.9997 62.6998 43.1997 62.5998 43.2997 62.4998C43.3997 62.3998 43.4997 62.0998 43.4997 61.7998C43.4997 61.4998 43.3997 61.2998 43.2997 61.0998C43.1997 60.9998 42.9997 60.8998 42.7997 60.8998C42.5997 60.8998 42.3997 60.9998 42.2997 61.0998C42.0997 61.2998 42.0997 61.4998 42.0997 61.7998ZM46.2997 63.0998V60.4998H47.0997L47.5997 62.1998L48.0997 60.4998H48.8997V63.0998H48.3997V61.0998L47.8997 63.0998H47.3997L46.8997 61.0998V63.0998H46.2997ZM51.1997 60.5998H53.1997V63.1998H52.6997V60.9998H51.6997V63.0998H51.1997V60.5998ZM57.8997 63.0998H57.2997L57.0997 62.4998H56.0997L55.8997 63.0998H55.3997L56.3997 60.4998H56.8997L57.8997 63.0998ZM56.8997 62.0998L56.4997 61.1998L56.1997 62.0998H56.8997ZM59.9997 63.0998V60.4998H60.4997V61.4998H61.4997V60.4998H61.9997V63.0998H61.4997V61.9998H60.4997V63.0998H59.9997ZM64.4997 60.5998H64.9997V62.2998L65.9997 60.5998H66.4997V63.1998H65.9997V61.4998L64.9997 63.1998H64.4997V60.5998ZM68.8997 60.5998H69.3997V62.2998L70.3997 60.5998H70.8997V63.1998H70.3997V61.4998L69.3997 63.1998H68.8997V60.5998ZM70.2997 59.7998H70.4997C70.4997 59.9998 70.3997 60.0998 70.2997 60.1998C70.1997 60.2998 70.0997 60.2998 69.8997 60.2998C69.6997 60.2998 69.5997 60.2998 69.4997 60.1998C69.3997 60.0998 69.2997 59.9998 69.2997 59.7998H69.4997C69.4997 59.8998 69.4997 59.8998 69.5997 59.9998C69.5997 59.9998 69.6997 60.0998 69.7997 60.0998C69.8997 60.0998 69.9997 60.0998 69.9997 59.9998C70.1997 59.9998 70.1997 59.8998 70.2997 59.7998Z" fill="#D8E5C2"/>
<path d="M39.8997 40.1996C28.9997 40.1996 20.0996 31.1996 20.0996 20.2996C20.1996 9.49961 28.9997 0.599609 39.8997 0.599609C50.8997 0.599609 59.9996 9.6996 59.7996 20.6996C59.5996 31.3996 50.8997 40.2996 39.8997 40.1996ZM54.9996 30.4996C54.9996 30.4996 54.9997 30.3996 54.8997 30.3996C54.7997 30.3996 54.6996 30.2996 54.4996 30.2996C52.7996 29.6996 51.4996 28.5996 50.4996 27.0996C49.7996 25.8996 49.3997 24.5996 49.3997 23.1996C49.3997 23.0996 49.3996 22.9996 49.2996 22.8996C48.8996 22.2996 48.4996 21.5996 48.1996 20.9996C48.0996 20.7996 47.9996 20.7996 47.7996 20.7996C44.2996 21.6996 42.3996 25.0996 43.4996 28.4996C44.1996 30.4996 45.5996 31.6996 47.5996 32.2996C48.5996 32.5996 49.6996 32.4996 50.7996 32.4996C51.8996 32.4996 52.9997 32.0996 53.8997 31.4996C54.2997 31.1996 54.5996 30.7996 54.9996 30.4996ZM24.9996 30.4996C25.0996 30.5996 25.0996 30.6996 25.0996 30.6996C25.8996 31.4996 26.7996 31.9996 27.7996 32.2996C28.7996 32.5996 29.7996 32.4996 30.6996 32.4996C31.3996 32.4996 32.0996 32.3996 32.6996 32.0996C35.3996 31.0996 36.9996 28.3996 36.4996 25.5996C36.0996 23.2996 34.2996 21.3996 31.9996 20.7996C31.7996 20.7996 31.6996 20.7996 31.5996 20.9996C31.1996 21.5996 30.8996 22.1996 30.4996 22.7996C30.3996 22.8996 30.3997 23.0996 30.3997 23.1996C30.2997 23.8996 30.2996 24.4996 30.0996 25.1996C29.3996 27.4996 27.8996 29.1996 25.6996 30.0996C25.4996 30.1996 25.2996 30.2996 24.9996 30.4996ZM42.3997 23.0996C42.4997 22.8996 42.5996 22.7996 42.5996 22.6996C43.0996 21.8996 43.7996 21.0996 44.5996 20.4996C46.0996 19.3996 47.6996 18.8996 49.4996 18.8996C51.2996 18.8996 52.9996 18.8996 54.7996 18.8996C55.6996 18.8996 56.5997 18.6996 57.3997 18.2996C57.8997 17.9996 57.8996 17.9996 57.7996 17.4996C57.7996 17.2996 57.7996 17.0996 57.6996 16.8996C57.6996 16.7996 57.4997 16.5996 57.3997 16.5996C55.8997 16.0996 54.3996 15.8996 52.7996 15.8996C52.6996 15.8996 52.5996 15.8996 52.4996 15.8996C52.5996 15.9996 52.5996 16.0996 52.6996 16.0996C52.9996 16.4996 53.2996 16.8996 53.5996 17.3996C53.7996 17.6996 53.7997 17.7996 53.3997 17.8996C53.0997 18.0996 52.7996 18.1996 52.4996 18.3996C52.2996 18.4996 52.1996 18.4996 52.0996 18.2996C51.6996 17.4996 51.0996 16.8996 50.2996 16.4996C49.0996 15.7996 47.7996 15.7996 46.4996 16.1996C44.3996 16.7996 42.9997 18.2996 42.3997 20.3996C42.1997 21.1996 42.0997 22.0996 42.3997 23.0996ZM27.3997 15.9996C27.2997 15.9996 27.1996 15.9996 27.0996 15.9996C25.4996 15.9996 23.9997 16.1996 22.3997 16.6996C22.2997 16.6996 22.1996 16.8996 22.0996 16.9996C21.9996 17.1996 21.9996 17.4996 21.9996 17.7996C21.9996 18.0996 21.9996 18.1996 22.1996 18.2996C23.0996 18.7996 24.0996 18.9996 25.0996 18.9996C26.7996 18.9996 28.5996 18.9996 30.2996 18.9996C31.0996 18.9996 31.8996 19.0996 32.6996 19.2996C34.0996 19.5996 35.2997 20.3996 36.3997 21.2996C36.7997 21.5996 37.1996 21.9996 37.5996 22.3996C37.5996 22.2996 37.5996 22.0996 37.5996 21.9996C37.5996 19.7996 36.6997 18.0996 34.8997 16.7996C33.4997 15.8996 31.9996 15.5996 30.4996 15.9996C29.2996 16.2996 28.3996 17.0996 27.7996 18.1996C27.6996 18.3996 27.5997 18.3996 27.3997 18.2996C27.0997 18.0996 26.6997 17.9996 26.3997 17.7996C26.1997 17.6996 26.0996 17.5996 26.2996 17.3996C26.5996 16.9996 26.8996 16.4996 27.1996 16.0996C27.2996 16.1996 27.2997 16.0996 27.3997 15.9996ZM34.2996 11.0996C33.7996 10.8996 33.4996 10.5996 32.9996 10.7996C32.7996 10.8996 32.4996 10.8996 32.2996 10.8996C30.1996 11.0996 28.1997 10.5996 26.3997 9.4996C26.2997 9.3996 26.1996 9.39961 26.0996 9.29961C26.0996 9.39961 26.0996 9.4996 26.0996 9.4996C26.6996 12.1996 29.0997 14.0996 31.8997 14.0996C33.8997 14.0996 35.5996 14.7996 37.0996 16.0996C37.4996 16.4996 37.8997 16.9996 38.3997 17.4996C38.3997 17.2996 38.3996 17.0996 38.2996 16.7996C38.0996 15.0996 37.3996 13.5996 36.1996 12.3996C35.9996 12.1996 35.8996 12.1996 35.6996 12.2996C34.1996 13.0996 32.5997 13.4996 30.8997 13.3996C30.5997 13.3996 30.5996 13.2996 30.5996 12.9996C30.5996 12.5996 30.6996 12.1996 30.6996 11.8996C30.6996 11.6996 30.7996 11.5996 30.9996 11.5996C31.0996 11.5996 31.1996 11.5996 31.2996 11.5996C32.1996 11.7996 33.2996 11.5996 34.2996 11.0996ZM41.6996 17.5996C41.7996 17.4996 41.7997 17.3996 41.8997 17.2996C43.4997 15.2996 45.4996 14.1996 48.0996 14.1996C50.8996 14.1996 53.1997 12.2996 53.8997 9.59961C53.8997 9.59961 53.8997 9.4996 53.8997 9.3996H53.7996C53.6996 9.3996 53.6996 9.4996 53.5996 9.4996C51.4996 10.7996 49.2997 11.1996 46.8997 10.7996C46.3997 10.6996 46.0996 10.8996 45.5996 11.0996C45.6996 11.0996 45.6996 11.1996 45.7996 11.1996C46.7996 11.6996 47.8996 11.7996 48.9996 11.7996C49.1996 11.7996 49.2996 11.8996 49.2996 12.0996C49.2996 12.3996 49.3997 12.7996 49.3997 13.0996C49.3997 13.4996 49.3996 13.4996 48.9996 13.4996C47.2996 13.5996 45.6996 13.1996 44.1996 12.3996C43.9996 12.2996 43.8996 12.2996 43.6996 12.4996C43.0996 13.0996 42.5996 13.7996 42.2996 14.5996C41.8996 15.4996 41.6996 16.4996 41.6996 17.5996ZM39.3997 22.9996C39.2997 23.2996 39.1996 23.5996 39.1996 23.8996C39.0996 24.0996 39.0996 24.2996 39.2996 24.4996C40.2996 26.1996 40.8997 28.0996 40.8997 30.0996C40.8997 30.6996 40.8996 31.1996 41.0996 31.7996C41.5996 34.2996 42.9996 36.1996 45.1996 37.4996C45.2996 37.4996 45.3996 37.5996 45.4996 37.5996C45.8996 37.4996 46.2996 37.2996 46.7996 37.1996C46.5996 37.0996 46.4997 36.9996 46.3997 36.8996C43.1997 34.7996 41.5996 31.6996 41.4996 27.8996C41.4996 27.0996 41.2996 26.2996 41.0996 25.4996C40.5996 24.6996 40.0997 23.7996 39.3997 22.9996ZM33.2996 37.1996C33.6996 37.2996 33.9996 37.4996 34.2996 37.5996C34.3996 37.5996 34.5996 37.5996 34.7996 37.5996C37.9996 35.7996 39.6997 31.9996 38.8997 28.3996C38.7997 28.0996 38.7996 27.8996 38.6996 27.5996C38.5996 31.6996 36.9996 34.9996 33.2996 37.1996ZM39.0996 13.5996C38.9996 11.7996 37.6996 9.59961 36.1996 8.59961C35.9996 8.39961 35.6996 8.3996 35.4996 8.3996C33.3996 8.6996 31.5996 8.0996 30.1996 6.4996C29.9996 6.2996 29.7996 5.99961 29.5996 5.79961C29.2996 5.89961 29.1996 6.0996 29.2996 6.3996C29.7996 7.6996 30.6996 8.49961 32.0996 8.79961C33.5996 8.99961 34.9996 9.5996 36.2996 10.4996C37.4996 11.1996 38.3996 12.1996 39.0996 13.5996ZM50.2996 5.6996C50.1996 5.7996 50.1996 5.8996 50.0996 5.8996C48.6996 7.8996 46.6996 8.69961 44.2996 8.29961C44.1996 8.29961 43.9997 8.2996 43.8997 8.3996C42.5997 9.2996 41.6996 10.4996 41.0996 11.9996C40.9996 12.1996 40.9997 12.4996 40.8997 12.6996C40.7997 12.8996 40.7996 13.1996 40.7996 13.3996C40.8996 13.2996 40.8996 13.2996 40.9996 13.1996C42.4996 10.5996 44.7996 8.99961 47.7996 8.59961C49.1996 8.39961 50.0996 7.59961 50.5996 6.29961C50.6996 5.89961 50.6996 5.8996 50.2996 5.6996ZM22.8997 26.2996C22.8997 26.2996 22.7997 26.2996 22.8997 26.2996C23.1997 27.1996 23.4997 27.9996 23.8997 28.7996C23.8997 28.8996 24.0996 28.8996 24.1996 28.8996C25.6996 28.4996 26.7996 27.6996 27.6996 26.4996C27.9996 25.9996 28.2997 25.5996 28.3997 24.8996C27.4997 25.3996 26.5996 25.7996 25.6996 26.0996C24.7996 26.1996 23.8997 26.2996 22.8997 26.2996ZM51.4996 24.8996C51.4996 24.9996 51.4996 24.9996 51.4996 25.0996C52.2996 27.0996 53.6996 28.3996 55.7996 28.8996C55.8996 28.8996 55.9996 28.7996 56.0996 28.7996C56.3996 28.0996 56.6996 27.3996 56.9996 26.6996C56.9996 26.5996 57.0996 26.4996 57.0996 26.3996C55.0996 26.3996 53.2996 25.8996 51.4996 24.8996ZM29.8997 20.7996C29.8997 20.7996 29.8997 20.6996 29.8997 20.7996C29.6997 20.6996 29.5996 20.6996 29.4996 20.6996C27.9996 20.6996 26.5996 20.6996 25.0996 20.6996C23.9996 20.6996 22.9996 20.4996 21.9996 20.0996C21.8996 20.0996 21.7996 20.0996 21.6996 19.9996C21.6996 20.3996 21.6996 20.7996 21.6996 21.0996C21.6996 21.1996 21.7997 21.2996 21.8997 21.2996C22.7997 21.5996 23.6996 21.7996 24.5996 21.7996C25.9996 21.7996 27.3996 21.7996 28.7996 21.7996C28.8996 21.7996 28.9996 21.7996 29.0996 21.6996C29.4996 21.3996 29.6997 21.0996 29.8997 20.7996ZM58.0996 19.9996C57.9996 19.9996 57.8996 20.0996 57.7996 20.0996C56.7996 20.4996 55.7996 20.7996 54.6996 20.6996C53.2996 20.6996 51.7997 20.6996 50.3997 20.6996C50.2997 20.6996 50.1996 20.6996 49.9996 20.6996C50.1996 20.9996 50.3996 21.2996 50.5996 21.5996C50.6996 21.7996 50.7996 21.7996 50.9996 21.7996C52.1996 21.7996 53.3996 21.7996 54.5996 21.7996C55.6996 21.7996 56.6996 21.5996 57.7996 21.2996C57.8996 21.2996 57.9996 21.1996 57.9996 21.0996C58.0996 20.7996 58.0996 20.3996 58.0996 19.9996ZM35.5996 32.5996C35.4996 32.5996 35.4997 32.6996 35.3997 32.6996C34.2997 33.4996 33.0996 33.9996 31.7996 34.0996C30.6996 34.1996 29.5996 34.0996 28.4996 34.0996C28.3996 34.0996 28.3996 34.0996 28.1996 34.0996C29.1996 34.8996 30.0996 35.5996 31.0996 36.0996C31.1996 36.1996 31.3996 36.0996 31.4996 36.0996C32.2996 35.7996 33.0996 35.2996 33.7996 34.6996C34.4996 34.0996 35.0996 33.3996 35.5996 32.5996ZM44.3997 32.5996C44.3997 32.6996 44.3997 32.6996 44.3997 32.5996C45.3997 34.2996 46.7996 35.3996 48.5996 36.1996C48.6996 36.1996 48.8996 36.1996 48.9996 36.1996C49.8996 35.5996 50.6996 34.9996 51.5996 34.4996C51.6996 34.4996 51.6996 34.3996 51.7996 34.2996C51.6996 34.2996 51.5996 34.2996 51.4996 34.2996C50.6996 34.2996 49.8996 34.2996 49.0996 34.2996C48.0996 34.2996 46.9996 34.0996 46.0996 33.5996C45.3996 33.2996 44.8997 32.8996 44.3997 32.5996ZM39.8997 34.3996C39.6997 34.6996 39.4996 35.0996 39.2996 35.3996C39.2996 35.4996 39.2996 35.5996 39.2996 35.6996C39.4996 36.5996 39.8996 37.4996 40.4996 38.2996C40.5996 38.3996 40.6996 38.4996 40.7996 38.4996C41.4996 38.4996 42.0996 38.3996 42.7996 38.2996H42.8997C42.3997 37.6996 41.7996 37.0996 41.2996 36.4996C40.7996 35.7996 40.3997 35.0996 39.8997 34.3996ZM39.0996 8.8996C38.9996 8.5996 38.9996 8.3996 38.9996 8.1996C38.7996 7.2996 38.4997 6.4996 37.8997 5.6996C37.3997 5.0996 36.9996 4.49961 36.6996 3.79961C36.5996 3.59961 36.4996 3.49961 36.4996 3.29961C36.1996 4.09961 36.1997 4.8996 36.3997 5.6996C36.6997 6.4996 37.0996 7.09961 37.6996 7.59961C38.0996 7.89961 38.5996 8.3996 39.0996 8.8996ZM40.8997 8.79961C41.4997 8.39961 41.8997 7.8996 42.3997 7.4996C42.9997 6.9996 43.4996 6.39961 43.6996 5.59961C43.9996 4.79961 43.9996 4.0996 43.6996 3.1996C43.5996 3.3996 43.5996 3.3996 43.4996 3.4996C43.0996 4.0996 42.7997 4.79961 42.3997 5.29961C41.9997 5.79961 41.5997 6.3996 41.3997 6.9996C41.1997 7.6996 40.9997 8.19961 40.8997 8.79961ZM26.9996 23.6996V23.5996C25.3996 23.6996 23.7996 23.5996 22.0996 23.0996C22.1996 23.4996 22.1996 23.7996 22.2996 24.1996C22.2996 24.3996 22.3996 24.4996 22.5996 24.4996C23.5996 24.6996 24.5996 24.5996 25.5996 24.2996C26.0996 24.0996 26.4996 23.8996 26.9996 23.6996ZM52.9996 23.5996C53.0996 23.6996 53.0996 23.6996 53.0996 23.6996C54.4996 24.3996 55.9996 24.6996 57.4996 24.3996C57.5996 24.3996 57.6996 24.2996 57.6996 24.2996C57.7996 23.8996 57.7997 23.4996 57.8997 23.0996C56.2997 23.5996 54.5996 23.5996 52.9996 23.5996ZM37.9996 2.4996C38.3996 3.7996 39.3996 4.5996 39.9996 5.8996C40.0996 5.6996 40.0996 5.5996 40.1996 5.4996C40.3996 5.2996 40.2996 5.0996 40.1996 4.8996C39.6996 4.1996 39.3996 3.4996 39.1996 2.6996C39.1996 2.5996 39.0996 2.4996 38.9996 2.4996C38.6996 2.4996 38.3996 2.4996 37.9996 2.4996ZM39.9996 18.2996C39.7996 18.7996 39.5997 19.3996 39.3997 19.9996C39.2997 20.1996 39.2996 20.4996 39.4996 20.6996C39.7996 20.9996 40.0996 21.2996 40.4996 21.5996C40.5996 21.0996 40.5996 20.6996 40.6996 20.1996C40.6996 20.0996 40.6996 20.0996 40.5996 19.9996C40.3996 19.2996 40.0996 18.6996 39.9996 18.2996ZM45.4996 3.29961V5.6996C46.0996 5.1996 46.4996 4.5996 46.4996 3.8996C46.4996 3.7996 46.3996 3.69961 46.2996 3.59961C46.0996 3.39961 45.7996 3.39961 45.4996 3.29961ZM34.4996 3.29961C34.1996 3.39961 33.8996 3.49961 33.5996 3.59961C33.4996 3.59961 33.4997 3.69961 33.3997 3.79961C33.2997 4.39961 33.8997 5.3996 34.3997 5.6996V3.29961H34.4996ZM25.8997 13.2996C25.8997 13.2996 25.8997 13.1996 25.8997 13.2996C25.4997 12.4996 25.0996 11.7996 24.5996 10.9996C24.4996 11.1996 24.2996 11.4996 24.1996 11.7996C24.1996 11.8996 24.1996 11.9996 24.2996 12.0996C24.7996 12.3996 25.2997 12.7996 25.8997 13.2996ZM54.0996 13.1996C54.6996 12.8996 55.2996 12.4996 55.7996 11.8996C55.7996 11.8996 55.8996 11.6996 55.7996 11.6996C55.6996 11.3996 55.4997 11.1996 55.3997 10.8996C54.8997 11.6996 54.4996 12.4996 54.0996 13.1996ZM28.6996 8.79961C28.3996 8.19961 28.0996 7.6996 27.6996 7.1996C27.4996 7.3996 27.2996 7.6996 26.9996 7.9996C27.5996 8.2996 28.1996 8.49961 28.6996 8.79961ZM51.1996 8.79961C51.8996 8.59961 52.3997 8.2996 52.8997 7.8996C52.6997 7.5996 52.4996 7.39961 52.2996 7.09961C51.8996 7.69961 51.4996 8.29961 51.1996 8.79961ZM57.1996 14.6996C56.9996 14.2996 56.8996 13.8996 56.6996 13.4996C56.2996 13.7996 55.8996 14.0996 55.4996 14.3996C56.0996 14.4996 56.5996 14.5996 57.1996 14.6996ZM24.3997 14.3996C23.9997 14.0996 23.5996 13.7996 23.1996 13.4996C22.9996 13.8996 22.8996 14.2996 22.6996 14.6996C23.3996 14.5996 23.8997 14.4996 24.3997 14.3996ZM37.9996 37.2996C37.5996 37.5996 37.2997 37.8996 36.8997 38.2996C37.4997 38.3996 37.8996 38.3996 38.4996 38.4996C38.2996 37.9996 38.1996 37.6996 37.9996 37.2996ZM31.0996 4.79961C31.3996 5.39961 31.8997 5.7996 32.3997 6.1996C32.1997 5.5996 31.8996 5.0996 31.6996 4.4996C31.4996 4.4996 31.2996 4.59961 31.0996 4.79961ZM47.5996 6.09961C48.0996 5.69961 48.5997 5.2996 48.8997 4.6996C48.6997 4.5996 48.4996 4.4996 48.2996 4.3996C47.9996 4.9996 47.7996 5.59961 47.5996 6.09961ZM40.9996 2.3996C40.9996 2.4996 40.9996 2.4996 40.9996 2.3996C41.0996 2.7996 41.1996 3.19961 41.2996 3.59961H41.3997C41.5997 3.29961 41.6997 2.8996 41.8997 2.4996C41.5997 2.4996 41.2996 2.4996 40.9996 2.3996Z" fill="#D8E5C2"/>
</svg>
